<mxfile host="app.diagrams.net" agent="Mozilla/5.0 (Windows NT 10.0; Win64; x64) AppleWebKit/537.36 (KHTML, like Gecko) Chrome/131.0.0.0 Safari/537.36" version="25.0.1">
  <diagram name="หน้า-1" id="q33fGXlhKvZPX137ER_j">
    <mxGraphModel dx="1050" dy="530" grid="1" gridSize="10" guides="1" tooltips="1" connect="1" arrows="1" fold="1" page="1" pageScale="1" pageWidth="827" pageHeight="1169" math="0" shadow="0">
      <root>
        <mxCell id="0" />
        <mxCell id="1" parent="0" />
        <mxCell id="6RFmOX3spmc2MOoNMdzf-3" value="" style="edgeStyle=orthogonalEdgeStyle;rounded=0;orthogonalLoop=1;jettySize=auto;html=1;" edge="1" parent="1" source="6RFmOX3spmc2MOoNMdzf-1" target="6RFmOX3spmc2MOoNMdzf-2">
          <mxGeometry relative="1" as="geometry" />
        </mxCell>
        <mxCell id="6RFmOX3spmc2MOoNMdzf-1" value="Start" style="ellipse;whiteSpace=wrap;html=1;" vertex="1" parent="1">
          <mxGeometry x="354" y="10" width="120" height="80" as="geometry" />
        </mxCell>
        <mxCell id="6RFmOX3spmc2MOoNMdzf-5" value="" style="edgeStyle=orthogonalEdgeStyle;rounded=0;orthogonalLoop=1;jettySize=auto;html=1;" edge="1" parent="1" source="6RFmOX3spmc2MOoNMdzf-2" target="6RFmOX3spmc2MOoNMdzf-4">
          <mxGeometry relative="1" as="geometry" />
        </mxCell>
        <mxCell id="6RFmOX3spmc2MOoNMdzf-2" value="Input Array1 size" style="shape=parallelogram;perimeter=parallelogramPerimeter;whiteSpace=wrap;html=1;fixedSize=1;" vertex="1" parent="1">
          <mxGeometry x="354" y="180" width="120" height="60" as="geometry" />
        </mxCell>
        <mxCell id="6RFmOX3spmc2MOoNMdzf-7" value="" style="edgeStyle=orthogonalEdgeStyle;rounded=0;orthogonalLoop=1;jettySize=auto;html=1;" edge="1" parent="1" source="6RFmOX3spmc2MOoNMdzf-4" target="6RFmOX3spmc2MOoNMdzf-6">
          <mxGeometry relative="1" as="geometry" />
        </mxCell>
        <mxCell id="6RFmOX3spmc2MOoNMdzf-4" value="Input Array2 size" style="shape=parallelogram;perimeter=parallelogramPerimeter;whiteSpace=wrap;html=1;fixedSize=1;" vertex="1" parent="1">
          <mxGeometry x="354" y="320" width="120" height="60" as="geometry" />
        </mxCell>
        <mxCell id="6RFmOX3spmc2MOoNMdzf-10" value="" style="edgeStyle=orthogonalEdgeStyle;rounded=0;orthogonalLoop=1;jettySize=auto;html=1;" edge="1" parent="1" source="6RFmOX3spmc2MOoNMdzf-6" target="6RFmOX3spmc2MOoNMdzf-9">
          <mxGeometry relative="1" as="geometry" />
        </mxCell>
        <mxCell id="6RFmOX3spmc2MOoNMdzf-6" value="Input Array1" style="shape=parallelogram;perimeter=parallelogramPerimeter;whiteSpace=wrap;html=1;fixedSize=1;" vertex="1" parent="1">
          <mxGeometry x="354" y="460" width="120" height="60" as="geometry" />
        </mxCell>
        <mxCell id="6RFmOX3spmc2MOoNMdzf-8" style="edgeStyle=orthogonalEdgeStyle;rounded=0;orthogonalLoop=1;jettySize=auto;html=1;exitX=0.5;exitY=1;exitDx=0;exitDy=0;" edge="1" parent="1" source="6RFmOX3spmc2MOoNMdzf-6" target="6RFmOX3spmc2MOoNMdzf-6">
          <mxGeometry relative="1" as="geometry" />
        </mxCell>
        <mxCell id="6RFmOX3spmc2MOoNMdzf-12" value="" style="edgeStyle=orthogonalEdgeStyle;rounded=0;orthogonalLoop=1;jettySize=auto;html=1;" edge="1" parent="1" source="6RFmOX3spmc2MOoNMdzf-9" target="6RFmOX3spmc2MOoNMdzf-11">
          <mxGeometry relative="1" as="geometry" />
        </mxCell>
        <mxCell id="6RFmOX3spmc2MOoNMdzf-9" value="Input Array 2" style="shape=parallelogram;perimeter=parallelogramPerimeter;whiteSpace=wrap;html=1;fixedSize=1;" vertex="1" parent="1">
          <mxGeometry x="354" y="600" width="120" height="60" as="geometry" />
        </mxCell>
        <mxCell id="6RFmOX3spmc2MOoNMdzf-14" value="" style="edgeStyle=orthogonalEdgeStyle;rounded=0;orthogonalLoop=1;jettySize=auto;html=1;" edge="1" parent="1" source="6RFmOX3spmc2MOoNMdzf-11" target="6RFmOX3spmc2MOoNMdzf-13">
          <mxGeometry relative="1" as="geometry" />
        </mxCell>
        <mxCell id="6RFmOX3spmc2MOoNMdzf-11" value="Array1 + Array2" style="whiteSpace=wrap;html=1;" vertex="1" parent="1">
          <mxGeometry x="354" y="740" width="120" height="60" as="geometry" />
        </mxCell>
        <mxCell id="6RFmOX3spmc2MOoNMdzf-16" value="" style="edgeStyle=orthogonalEdgeStyle;rounded=0;orthogonalLoop=1;jettySize=auto;html=1;" edge="1" parent="1" source="6RFmOX3spmc2MOoNMdzf-13" target="6RFmOX3spmc2MOoNMdzf-15">
          <mxGeometry relative="1" as="geometry" />
        </mxCell>
        <mxCell id="6RFmOX3spmc2MOoNMdzf-13" value="Output Array3" style="shape=parallelogram;perimeter=parallelogramPerimeter;whiteSpace=wrap;html=1;fixedSize=1;" vertex="1" parent="1">
          <mxGeometry x="354" y="880" width="120" height="60" as="geometry" />
        </mxCell>
        <mxCell id="6RFmOX3spmc2MOoNMdzf-15" value="End" style="ellipse;whiteSpace=wrap;html=1;" vertex="1" parent="1">
          <mxGeometry x="354" y="1020" width="120" height="80" as="geometry" />
        </mxCell>
      </root>
    </mxGraphModel>
  </diagram>
</mxfile>
